<svg width="90" height="97.056" viewBox="0 0 23.813 25.679" xmlns="http://www.w3.org/2000/svg">
    <g fill="#f27ba9">
        <path d="M11.901 19.311a102.32 102.32 0 0 0-.42-.045 9.778 9.778 0 0 1-3.907-1.337 9.994 9.994 0 0 1-2.56-2.259c-.144-.183-.28-.334-.303-.334-.022 0-.132.022-.244.049a1.67 1.67 0 0 1-.505.032c-.5-.026-.884-.199-1.248-.56a1.893 1.893 0 0 1-.37-2.185c.126-.258.337-.52.534-.667l.204-.152.062-.046-.066-.374a16.527 16.527 0 0 1-.116-.824l-.05-.45-.305.01c-.229.009-.344-.001-.457-.039-.214-.07-.424-.27-.531-.502-.078-.17-.087-.22-.086-.49 0-.32.06-.564.21-.859.115-.226.116-.224-.25-.245-.371-.02-.607-.075-.865-.201a1.209 1.209 0 0 1-.538-.485C.01 7.204 0 7.161 0 6.918c0-.25.008-.284.102-.457.17-.313.454-.56.863-.749.122-.056.221-.109.221-.117a4.44 4.44 0 0 0-.296-.307c-.247-.244-.316-.333-.42-.546-.246-.503-.234-.882.039-1.216.286-.35.908-.464 1.544-.285.122.034.228.055.237.046.01-.009-.001-.13-.023-.269-.051-.33-.026-.783.058-1.023.233-.669.807-.91 1.431-.6.258.127.533.379.713.654.063.096.129.17.146.164.018-.006.09-.105.16-.22.26-.43.623-.745.985-.86a.948.948 0 0 1 1.158.486c.034.067.075.121.09.121.016 0 .16-.086.322-.192A9.753 9.753 0 0 1 11.687.03c.401-.04 1.334-.04 1.775.001a9.527 9.527 0 0 1 3.507 1.018c2.06 1.042 3.738 2.872 4.581 4.998.079.198.157.377.173.398.018.023.103.037.216.037.767 0 1.534.567 1.788 1.321.094.278.114.742.045 1.028a1.955 1.955 0 0 1-1.346 1.418c-.096.028-.179.066-.184.085-.006.02-.032.228-.06.465a9.67 9.67 0 0 1-7.145 8.214c-.85.22-1.35.286-2.296.3a16.85 16.85 0 0 1-.84-.002zm1.366-.974c2.11-.18 3.983-1.05 5.463-2.533a8.622 8.622 0 0 0 2.245-3.844 8.67 8.67 0 0 0-.263-5.399 8.099 8.099 0 0 0-.921-1.76 8.698 8.698 0 0 0-5.97-3.755c-.61-.092-1.816-.1-2.385-.016-1.44.212-2.714.715-3.865 1.527-.16.113-.292.227-.292.253 0 .033.016.04.052.027.03-.011.16-.046.293-.078.683-.164 1.309.037 1.528.491.22.457.074.997-.409 1.507-.138.146-.231.268-.216.282.015.014.116.054.224.09.444.144.899.511 1.065.858.072.15.086.22.087.42 0 .203-.011.264-.078.391-.209.398-.693.661-1.325.72-.127.012-.23.032-.23.045 0 .013.059.136.132.274.353.67.364 1.31.029 1.703-.162.189-.366.281-.657.297-.387.02-.707-.086-1.12-.372-.104-.073-.201-.125-.215-.117-.014.009-.035.087-.046.173-.056.412-.265.87-.515 1.124-.426.438-1.004.438-1.43 0-.174-.177-.338-.469-.44-.779-.103-.317-.133-.262-.112.21a8.66 8.66 0 0 0 2.025 5.17c.288.343.886.929 1.238 1.211.549.442 1.41.957 2.042 1.223a8.784 8.784 0 0 0 4.065.656zm-.044-2.522c-.482-.06-1.088-.274-1.229-.434a.47.47 0 0 1-.002-.627c.182-.206.339-.212.84-.03.29.105.344.115.708.126.33.01.433.003.645-.05a2.47 2.47 0 0 0 1.57-1.184c.097-.163.198-.295.248-.324a.479.479 0 0 1 .61.078c.087.09.103.13.114.28a.51.51 0 0 1-.07.338 3.6 3.6 0 0 1-1.036 1.207 3.795 3.795 0 0 1-1.387.588c-.26.048-.758.064-1.01.032zm-3.637-2.084c-.715-.23-.943-1.121-.417-1.632.209-.203.36-.26.691-.259.239 0 .306.012.414.07.188.099.343.25.443.431.08.145.088.185.088.444 0 .332-.062.498-.263.699-.236.236-.653.344-.956.247zm6.367-2.467c-.202-.073-.486-.37-.556-.58a.982.982 0 0 1 .358-1.13.912.912 0 0 1 .558-.17c.22 0 .385.05.558.17.6.413.53 1.35-.125 1.673-.19.093-.586.112-.793.037zm-2.213-4.15a4.088 4.088 0 0 1-2.44-1.17c-.427-.427-.853-1.108-.96-1.535a.575.575 0 0 1 .796-.661c.164.076.236.162.343.415.606 1.423 2.088 2.119 3.563 1.673.306-.092.382-.092.567 0 .178.09.286.237.306.42.025.216-.013.336-.151.48-.106.11-.168.143-.381.207-.543.162-1.158.226-1.643.17zm1.086-1.773a4.01 4.01 0 0 1-1.518-.438 3.796 3.796 0 0 1-1.085-.82c-.361-.376-.471-.557-.472-.776a.55.55 0 0 1 .575-.576c.21 0 .352.092.57.37.914 1.162 2.546 1.432 3.827.633.164-.102.269-.146.371-.156.363-.035.63.207.63.57 0 .303-.158.469-.72.755-.483.247-.965.391-1.41.424l-.362.027c-.074.005-.257 0-.406-.013zm-10.71 9.082c.009-.024-.073-.224-.181-.443-.11-.22-.263-.561-.343-.76-.09-.225-.16-.36-.187-.36-.07 0-.231.273-.27.455a.917.917 0 0 0 .245.836.854.854 0 0 0 .432.273c.164.052.284.051.304-.001zM22.53 9.102c.233-.219.308-.388.308-.699 0-.216-.012-.278-.078-.405-.1-.194-.332-.41-.512-.479-.178-.067-.247-.046-.218.067.057.22.135.729.166 1.076.05.571.053.582.122.582.033 0 .128-.064.212-.142zm-17.326-1a2.19 2.19 0 0 0 1.765-1.35c.408-1.01-.045-2.192-1.037-2.711-.365-.19-.597-.245-1.054-.245-.341 0-.441.011-.63.07-.387.121-.619.262-.92.56-.232.23-.294.313-.413.556-.306.623-.307 1.264-.005 1.876A2.235 2.235 0 0 0 4.624 8.1c.253.037.3.037.58.002zM12.92 22.617c-.007-.132-.44-.12-.672-.12-.226-.006-.207.12-.207.12s-.063.608-.094 1.248c-.044.633-.056 1.298-.025 1.417.05.232.42.207.702.182.289-.044.301-.213.301-.213a52.628 52.628 0 0 1-.006-2.634zM12.48 21.295q.056.102.07.207.015.104.015.042.046-.04.076-.086.03-.047.105-.106.099-.029.165-.031.065-.003.114.025.053.019.111.093t-.043.263q-.15.2-.339.348-.187.15-.299.18-.057.03-.192-.175-.125-.197-.219-.387-.03-.106-.034-.18-.006-.075.022-.174.029-.09.164-.12.136-.03.283.101zM8.705 22.617c-.006-.132-.44-.12-.671-.12-.226-.006-.207.12-.207.12s-.063.608-.094 1.248c-.044.633-.057 1.298-.025 1.417.05.232.42.207.702.182.289-.044.301-.213.301-.213a52.628 52.628 0 0 1-.006-2.634zM8.265 21.295q.057.102.07.207.016.104.016.042.046-.04.076-.086.03-.047.105-.106.098-.029.164-.031.066-.003.115.025.053.019.11.093.059.074-.042.263-.15.2-.339.348-.187.15-.3.18-.056.03-.191-.175-.125-.197-.219-.387-.03-.106-.034-.18-.006-.075.022-.174.028-.09.164-.12t.283.101zM2.341 21.037c-.32-.182-.702-.27-1.11-.289a6.215 6.215 0 0 0-.483 0 1.98 1.98 0 0 0-.432.006c-.232.013-.207.207-.207.207s-.02.954-.057 1.944C.027 23.91-.01 24.95.002 25.132c.044.389.408.364.709.339.288-.02.313-.295.313-.295 0-.264 0-.527.007-.797a2.68 2.68 0 0 0 1.273-.526c.94-.722 1.122-2.202.037-2.816zm-1.317 2.251c0-.47 0-1.035-.006-1.511 1.461-.1 1.348 1.41.006 1.511zM6.268 24.51c-.131-.319-.069-.921-.062-1.24.407.037.77.074.852.056.182-.044.182-.408.17-.697-.006-.294-.144-.32-.144-.32l-.816-.018c.025-.427.063-.866.057-1.324-.013-.257-.452-.213-.678-.2-.131.019-.238.088-.244.2-.032.42-.05.828-.07 1.305-.131 0-.263 0-.388.006-.063-.006-.088.37-.05.634.031.194.069.25.244.263.032 0 .063.006.1.006-.012.395-.03.728 0 1.054.063.671.39 1.336 1.104 1.43.264.038.577 0 .79-.22.114-.119.176-.363.145-.577-.031-.225-.163-.294-.37-.22-.27.095-.514.151-.64-.137zM10.482 24.51c-.131-.319-.069-.921-.062-1.24.407.037.771.074.853.056.181-.044.181-.408.169-.697-.006-.294-.144-.32-.144-.32l-.816-.018c.025-.427.063-.866.057-1.324-.013-.257-.452-.213-.677-.2-.132.019-.239.088-.245.2-.031.42-.05.828-.07 1.305-.13 0-.262 0-.388.006-.063-.006-.088.37-.05.634.031.194.069.25.245.263.03 0 .062.006.1.006-.013.395-.032.728 0 1.054.063.671.389 1.336 1.104 1.43.263.038.577 0 .79-.22.113-.119.175-.363.144-.577-.031-.225-.163-.294-.37-.22-.27.095-.514.151-.64-.137zM14.338 22.265v-.207c-.006-.144-.451-.12-.677-.107-.232.013-.213.15-.213.15-.007.164-.138 2.974-.082 3.13.044.27.414.264.709.233.282-.026.3-.232.3-.232l-.018-1.318c.07-1.291 1.173-1.204 1.317-.363.044.257 0 .533-.031.828-.032.27-.075.765.075.96.132.175.42.156.646.125.289-.032.307-.32.307-.446l.013-1.022c0-.627-.094-1.047-.276-1.336-.433-.684-1.436-.665-2.07-.395zM18.149 22.335c.006-.452.025-.91.056-1.367 0-.195-.439-.2-.665-.213-.25-.007-.3.169-.32.35a28.387 28.387 0 0 0-.018 4.065c.075.376.432.326.727.27a.329.329 0 0 0 .282-.32c-.025-.39-.044-.79-.056-1.186-.038-1.06 1.141-1.267 1.022.007-.025.395-.075.777-.075 1.166.038.395.395.383.696.364.295-.006.32-.289.32-.289l.056-1.179c.157-1.662-1.028-2.226-2.025-1.668zM23.81 22.209c.007-.15-.426-.17-.664-.182-.082-.006-.138.013-.163.031-.558-.15-1.142-.081-1.6.239-1.285.984-.84 3.298.847 3.154.188-.019.376-.056.558-.1.107.188.427.15.684.113.288-.044.295-.239.295-.239a21.064 21.064 0 0 1 .044-3.016zm-.978.759c-.031.194-.044.414-.062.64-.02.213-.026.432-.038.645-1.555 1.205-1.405-1.887.1-1.285zM4.492 22.617c-.006-.132-.44-.12-.671-.12-.226-.006-.207.12-.207.12s-.063.608-.094 1.248c-.044.633-.057 1.298-.025 1.417.05.232.42.207.702.182.289-.044.301-.213.301-.213a52.628 52.628 0 0 1-.006-2.634zM4.052 21.295q.057.102.07.207.016.104.016.042.046-.04.076-.086.03-.047.105-.106.098-.029.164-.031.066-.003.115.025.053.019.11.093.059.074-.042.263-.15.2-.339.348-.187.15-.3.18-.056.03-.191-.175-.125-.197-.219-.387-.03-.106-.034-.18-.006-.075.021-.174.03-.09.165-.12.136-.03.283.101z"/>
    </g>
</svg>
